<svg width="260" height="260" viewBox="0 0 260 260" fill="none" xmlns="http://www.w3.org/2000/svg">
<rect width="260" height="260" rx="40" fill="#D93E2E"/>
<mask id="mask0_49_174" style="mask-type:luminance" maskUnits="userSpaceOnUse" x="26" y="26" width="208" height="208">
<path d="M234 26H26V234H234V26Z" fill="white"/>
</mask>
<g mask="url(#mask0_49_174)">
<path d="M171.597 171.594C254.801 254.802 5.19886 254.802 88.4034 171.594C5.19886 254.802 5.19886 5.20086 88.4034 88.3974C5.19886 5.20086 254.801 5.20086 171.597 88.3974C254.801 5.20086 254.801 254.802 171.597 171.594Z" fill="white"/>
</g>
<path d="M97.2933 127.26H95.1333L93.8733 131.928H96.0333L95.3973 134.352H93.2373L92.2533 138H89.7573L90.7413 134.352H85.8933L84.9093 138H82.4133L83.3973 134.352H81.2373L81.8853 131.928H84.0333L85.2933 127.26H83.1333L83.7813 124.848H85.9293L86.9133 121.2H89.4093L88.4253 124.848H93.2973L94.2573 121.2H96.7533L95.7933 124.848H97.9293L97.2933 127.26ZM91.3773 131.928L92.6373 127.26H87.7893L86.5293 131.928H91.3773ZM100.327 138V121.2H105.883C107.043 121.2 108.131 121.42 109.147 121.86C110.163 122.292 111.055 122.896 111.823 123.672C112.591 124.44 113.191 125.332 113.623 126.348C114.063 127.356 114.283 128.44 114.283 129.6C114.283 130.76 114.063 131.848 113.623 132.864C113.191 133.872 112.591 134.764 111.823 135.54C111.055 136.308 110.163 136.912 109.147 137.352C108.131 137.784 107.043 138 105.883 138H100.327ZM102.823 135.504H105.883C106.699 135.504 107.459 135.352 108.163 135.048C108.875 134.744 109.503 134.32 110.047 133.776C110.599 133.232 111.027 132.604 111.331 131.892C111.635 131.18 111.787 130.416 111.787 129.6C111.787 128.784 111.635 128.02 111.331 127.308C111.027 126.596 110.599 125.968 110.047 125.424C109.503 124.88 108.875 124.456 108.163 124.152C107.459 123.848 106.699 123.696 105.883 123.696H102.823V135.504ZM118.744 138L122.14 132.12C121.332 132.272 120.544 132.24 119.776 132.024C119.016 131.8 118.332 131.436 117.724 130.932C117.116 130.42 116.632 129.8 116.272 129.072C115.912 128.344 115.732 127.544 115.732 126.672C115.732 125.88 115.88 125.136 116.176 124.44C116.48 123.736 116.896 123.12 117.424 122.592C117.952 122.056 118.564 121.64 119.26 121.344C119.964 121.04 120.716 120.888 121.516 120.888C122.564 120.888 123.524 121.148 124.396 121.668C125.268 122.188 125.964 122.888 126.484 123.768C127.004 124.64 127.264 125.608 127.264 126.672C127.264 127.224 127.196 127.728 127.06 128.184C126.932 128.64 126.728 129.12 126.448 129.624L121.636 138H118.744ZM121.492 129.948C122.132 129.948 122.7 129.796 123.196 129.492C123.692 129.18 124.08 128.776 124.36 128.28C124.648 127.776 124.792 127.236 124.792 126.66C124.792 126.036 124.64 125.476 124.336 124.98C124.032 124.484 123.628 124.092 123.124 123.804C122.628 123.516 122.092 123.372 121.516 123.372C120.876 123.372 120.308 123.528 119.812 123.84C119.316 124.152 118.924 124.56 118.636 125.064C118.348 125.56 118.204 126.092 118.204 126.66C118.204 127.26 118.348 127.812 118.636 128.316C118.932 128.812 119.328 129.208 119.824 129.504C120.32 129.8 120.876 129.948 121.492 129.948ZM134.021 138.312C133.005 138.312 132.093 138.076 131.285 137.604C130.485 137.132 129.853 136.5 129.389 135.708C128.925 134.916 128.693 134.036 128.693 133.068H131.189C131.189 133.572 131.309 134.032 131.549 134.448C131.789 134.864 132.121 135.196 132.545 135.444C132.969 135.692 133.461 135.816 134.021 135.816C134.525 135.816 134.993 135.692 135.425 135.444C135.857 135.196 136.205 134.864 136.469 134.448C136.733 134.032 136.865 133.572 136.865 133.068C136.865 132.428 136.697 131.892 136.361 131.46C136.025 131.028 135.557 130.708 134.957 130.5C134.365 130.284 133.681 130.176 132.905 130.176V128.208C133.961 128.208 134.805 128 135.437 127.584C136.069 127.168 136.385 126.548 136.385 125.724C136.385 125.292 136.269 124.9 136.037 124.548C135.813 124.188 135.513 123.904 135.137 123.696C134.769 123.48 134.373 123.372 133.949 123.372C133.509 123.372 133.085 123.48 132.677 123.696C132.277 123.904 131.949 124.188 131.693 124.548C131.437 124.9 131.309 125.292 131.309 125.724H128.813C128.813 125.06 128.949 124.436 129.221 123.852C129.501 123.26 129.877 122.744 130.349 122.304C130.829 121.856 131.373 121.508 131.981 121.26C132.597 121.004 133.241 120.876 133.913 120.876C134.793 120.876 135.609 121.096 136.361 121.536C137.121 121.968 137.729 122.552 138.185 123.288C138.649 124.016 138.881 124.828 138.881 125.724C138.881 126.436 138.705 127.112 138.353 127.752C138.009 128.384 137.529 128.832 136.913 129.096C137.449 129.288 137.897 129.592 138.257 130.008C138.625 130.416 138.901 130.888 139.085 131.424C139.269 131.952 139.361 132.5 139.361 133.068C139.361 134.028 139.117 134.908 138.629 135.708C138.141 136.5 137.489 137.132 136.673 137.604C135.865 138.076 134.981 138.312 134.021 138.312ZM141.53 138V121.2H151.958V123.696H144.026V127.752H150.41V130.248H144.026V135.504H151.958V138H141.53ZM154.128 138V135.78C154.696 135.308 155.348 134.76 156.084 134.136C156.82 133.504 157.568 132.836 158.328 132.132C159.088 131.42 159.788 130.712 160.428 130.008C161.068 129.296 161.584 128.624 161.976 127.992C162.376 127.352 162.576 126.796 162.576 126.324C162.576 125.788 162.444 125.3 162.18 124.86C161.924 124.412 161.576 124.056 161.136 123.792C160.696 123.52 160.208 123.384 159.672 123.384C159.136 123.384 158.644 123.52 158.196 123.792C157.756 124.056 157.4 124.412 157.128 124.86C156.864 125.3 156.732 125.788 156.732 126.324H154.236C154.236 125.308 154.484 124.392 154.98 123.576C155.484 122.752 156.144 122.1 156.96 121.62C157.784 121.132 158.688 120.888 159.672 120.888C160.664 120.888 161.568 121.132 162.384 121.62C163.2 122.108 163.852 122.764 164.34 123.588C164.828 124.404 165.072 125.316 165.072 126.324C165.072 126.884 164.956 127.46 164.724 128.052C164.492 128.644 164.168 129.248 163.752 129.864C163.344 130.48 162.868 131.104 162.324 131.736C161.78 132.368 161.196 133 160.572 133.632C159.948 134.264 159.312 134.888 158.664 135.504H165.216V138H154.128ZM168.085 138V121.2H178.513V123.696H170.581V127.752H176.965V130.248H170.581V135.504H178.513V138H168.085Z" fill="black"/>
</svg>
