<svg width="319" height="319" viewBox="0 0 319 319" fill="none" xmlns="http://www.w3.org/2000/svg">
<rect y="67.293" width="260" height="260" rx="40" transform="rotate(-15 0 67.293)" fill="#106CA6"/>
<g clip-path="url(#clip0_49_181)">
<mask id="mask0_49_181" style="mask-type:luminance" maskUnits="userSpaceOnUse" x="59" y="59" width="200" height="200">
<path d="M259 59H59V259H259V59Z" fill="white"/>
</mask>
<g mask="url(#mask0_49_181)">
<path d="M224.219 250.946C224.619 255.381 213.532 261.035 210.044 258.266C180.008 234.429 138.018 234.423 107.975 258.247C104.485 261.014 93.3857 255.351 93.7842 250.916C95.6166 230.522 87.4775 222.383 67.0835 224.215C62.6476 224.614 56.985 213.513 59.7524 210.024C83.5761 179.983 83.5695 137.998 59.7328 107.964C56.9644 104.476 62.6179 93.3877 67.0533 93.7871C87.4695 95.6256 95.6176 87.4874 93.7842 67.0835C93.3856 62.6477 104.485 56.985 107.975 59.7523C138.018 83.5765 180.008 83.57 210.044 59.7328C213.532 56.9644 224.619 62.618 224.219 67.0533C222.379 87.4788 230.525 95.6261 250.946 93.7872C255.381 93.3878 261.035 104.475 258.267 107.963C234.436 137.997 234.429 179.984 258.248 210.024C261.015 213.514 255.352 224.614 250.916 224.215C230.517 222.383 222.38 230.531 224.219 250.946Z" fill="#D9F7FF"/>
</g>
<path d="M126.477 156.26H124.317L123.057 160.928H125.217L124.581 163.352H122.421L121.437 167H118.941L119.925 163.352H115.077L114.093 167H111.597L112.581 163.352H110.421L111.069 160.928H113.217L114.477 156.26H112.317L112.965 153.848H115.113L116.097 150.2H118.593L117.609 153.848H122.481L123.441 150.2H125.937L124.977 153.848H127.113L126.477 156.26ZM120.561 160.928L121.821 156.26H116.973L115.713 160.928H120.561ZM131.034 167V152.696H129.03L129.714 150.2H133.53V167H131.034ZM142.689 167.312C141.697 167.312 140.801 167.088 140.001 166.64C139.209 166.184 138.525 165.556 137.949 164.756C137.373 163.956 136.933 163.032 136.629 161.984C136.325 160.928 136.173 159.8 136.173 158.6C136.173 157.4 136.325 156.272 136.629 155.216C136.933 154.16 137.373 153.236 137.949 152.444C138.525 151.644 139.209 151.02 140.001 150.572C140.801 150.116 141.697 149.888 142.689 149.888C143.665 149.888 144.553 150.116 145.353 150.572C146.153 151.02 146.833 151.644 147.393 152.444C147.961 153.236 148.397 154.16 148.701 155.216C149.005 156.272 149.157 157.4 149.157 158.6C149.157 159.8 149.005 160.928 148.701 161.984C148.397 163.032 147.961 163.956 147.393 164.756C146.833 165.556 146.153 166.184 145.353 166.64C144.553 167.088 143.665 167.312 142.689 167.312ZM142.689 164.816C143.609 164.816 144.373 164.528 144.981 163.952C145.597 163.368 146.057 162.604 146.361 161.66C146.665 160.716 146.817 159.696 146.817 158.6C146.817 157.448 146.657 156.404 146.337 155.468C146.025 154.524 145.561 153.776 144.945 153.224C144.337 152.664 143.585 152.384 142.689 152.384C141.977 152.384 141.357 152.552 140.829 152.888C140.309 153.224 139.877 153.684 139.533 154.268C139.197 154.852 138.941 155.516 138.765 156.26C138.597 157.004 138.513 157.784 138.513 158.6C138.513 159.696 138.669 160.716 138.981 161.66C139.293 162.604 139.757 163.368 140.373 163.952C140.997 164.528 141.769 164.816 142.689 164.816ZM156.335 167.312C155.263 167.312 154.283 167.048 153.395 166.52C152.507 165.984 151.795 165.272 151.259 164.384C150.731 163.488 150.467 162.5 150.467 161.42C150.467 160.844 150.535 160.324 150.671 159.86C150.807 159.396 151.015 158.908 151.295 158.396L156.023 150.2H158.927L155.651 155.864C156.315 155.736 156.963 155.732 157.595 155.852C158.235 155.964 158.835 156.184 159.395 156.512C159.955 156.832 160.447 157.24 160.871 157.736C161.303 158.224 161.639 158.78 161.879 159.404C162.119 160.028 162.239 160.7 162.239 161.42C162.239 162.228 162.083 162.988 161.771 163.7C161.467 164.412 161.043 165.04 160.499 165.584C159.963 166.12 159.335 166.544 158.615 166.856C157.903 167.16 157.143 167.312 156.335 167.312ZM156.335 164.816C156.991 164.816 157.575 164.656 158.087 164.336C158.599 164.016 159.003 163.596 159.299 163.076C159.595 162.556 159.743 162.004 159.743 161.42C159.743 160.804 159.591 160.24 159.287 159.728C158.991 159.216 158.587 158.808 158.075 158.504C157.563 158.192 156.991 158.036 156.359 158.036C155.703 158.036 155.119 158.196 154.607 158.516C154.095 158.836 153.691 159.252 153.395 159.764C153.107 160.276 152.963 160.828 152.963 161.42C152.963 162.068 153.119 162.648 153.431 163.16C153.751 163.672 154.167 164.076 154.679 164.372C155.191 164.668 155.743 164.816 156.335 164.816ZM172.185 167.312C171.049 167.312 169.981 167.088 168.981 166.64C167.981 166.184 167.101 165.56 166.341 164.768C165.589 163.968 164.997 163.04 164.565 161.984C164.141 160.928 163.929 159.8 163.929 158.6C163.929 157.4 164.141 156.272 164.565 155.216C164.997 154.16 165.589 153.236 166.341 152.444C167.101 151.644 167.981 151.02 168.981 150.572C169.981 150.116 171.049 149.888 172.185 149.888C173.545 149.888 174.797 150.204 175.941 150.836C177.085 151.468 178.033 152.308 178.785 153.356L176.565 154.544C176.045 153.888 175.401 153.364 174.633 152.972C173.865 152.58 173.049 152.384 172.185 152.384C171.385 152.384 170.637 152.548 169.941 152.876C169.245 153.204 168.633 153.652 168.105 154.22C167.577 154.788 167.165 155.448 166.869 156.2C166.573 156.952 166.425 157.752 166.425 158.6C166.425 159.456 166.573 160.26 166.869 161.012C167.165 161.756 167.577 162.416 168.105 162.992C168.641 163.56 169.257 164.008 169.953 164.336C170.649 164.656 171.393 164.816 172.185 164.816C173.065 164.816 173.885 164.62 174.645 164.228C175.413 163.828 176.053 163.3 176.565 162.644L178.785 163.856C178.033 164.904 177.085 165.744 175.941 166.376C174.797 167 173.545 167.312 172.185 167.312ZM186.443 150.2H189.359L195.467 167H192.827L191.663 163.808H184.139L182.987 167H180.335L186.443 150.2ZM185.063 161.312H190.739L187.895 153.512L185.063 161.312ZM202.906 167.312C201.834 167.312 200.854 167.048 199.965 166.52C199.078 165.984 198.366 165.272 197.83 164.384C197.302 163.488 197.038 162.5 197.038 161.42C197.038 160.844 197.106 160.324 197.242 159.86C197.378 159.396 197.586 158.908 197.866 158.396L202.594 150.2H205.498L202.222 155.864C202.886 155.736 203.534 155.732 204.166 155.852C204.806 155.964 205.406 156.184 205.966 156.512C206.526 156.832 207.018 157.24 207.442 157.736C207.874 158.224 208.21 158.78 208.45 159.404C208.69 160.028 208.81 160.7 208.81 161.42C208.81 162.228 208.654 162.988 208.342 163.7C208.038 164.412 207.614 165.04 207.07 165.584C206.534 166.12 205.906 166.544 205.186 166.856C204.474 167.16 203.714 167.312 202.906 167.312ZM202.906 164.816C203.562 164.816 204.146 164.656 204.658 164.336C205.17 164.016 205.574 163.596 205.87 163.076C206.166 162.556 206.314 162.004 206.314 161.42C206.314 160.804 206.162 160.24 205.858 159.728C205.562 159.216 205.158 158.808 204.646 158.504C204.134 158.192 203.562 158.036 202.93 158.036C202.274 158.036 201.69 158.196 201.178 158.516C200.666 158.836 200.262 159.252 199.965 159.764C199.678 160.276 199.534 160.828 199.534 161.42C199.534 162.068 199.69 162.648 200.002 163.16C200.322 163.672 200.738 164.076 201.25 164.372C201.762 164.668 202.314 164.816 202.906 164.816Z" fill="black"/>
</g>
<defs>
<clipPath id="clip0_49_181">
<rect width="200" height="200" fill="white" transform="translate(59 59)"/>
</clipPath>
</defs>
</svg>
