<svg width="260" height="260" viewBox="0 0 260 260" fill="none" xmlns="http://www.w3.org/2000/svg">
<rect width="260" height="260" rx="40" fill="#33ACA5"/>
<g clip-path="url(#clip0_49_189)">
<rect width="200" height="200" transform="translate(30 30)" fill="#33ACA5"/>
<mask id="mask0_49_189" style="mask-type:luminance" maskUnits="userSpaceOnUse" x="30" y="30" width="200" height="200">
<path d="M230 30H30V230H230V30Z" fill="white"/>
</mask>
<g mask="url(#mask0_49_189)">
<path d="M30 30H130C185.228 30 230 74.7715 230 130V230H130C74.7715 230 30 185.228 30 130V30Z" fill="#93EBE6"/>
</g>
<path d="M94.6058 127.26H92.4458L91.1858 131.928H93.3458L92.7098 134.352H90.5498L89.5658 138H87.0698L88.0538 134.352H83.2058L82.2218 138H79.7258L80.7098 134.352H78.5498L79.1978 131.928H81.3458L82.6058 127.26H80.4458L81.0938 124.848H83.2418L84.2258 121.2H86.7218L85.7378 124.848H90.6098L91.5698 121.2H94.0658L93.1058 124.848H95.2418L94.6058 127.26ZM88.6898 131.928L89.9498 127.26H85.1018L83.8418 131.928H88.6898ZM102.247 138.312C101.231 138.312 100.319 138.076 99.5112 137.604C98.7112 137.132 98.0792 136.5 97.6152 135.708C97.1512 134.916 96.9192 134.036 96.9192 133.068H99.4152C99.4152 133.572 99.5352 134.032 99.7752 134.448C100.015 134.864 100.347 135.196 100.771 135.444C101.195 135.692 101.687 135.816 102.247 135.816C102.751 135.816 103.219 135.692 103.651 135.444C104.083 135.196 104.431 134.864 104.695 134.448C104.959 134.032 105.091 133.572 105.091 133.068C105.091 132.428 104.923 131.892 104.587 131.46C104.251 131.028 103.783 130.708 103.183 130.5C102.591 130.284 101.907 130.176 101.131 130.176V128.208C102.187 128.208 103.031 128 103.663 127.584C104.295 127.168 104.611 126.548 104.611 125.724C104.611 125.292 104.495 124.9 104.263 124.548C104.039 124.188 103.739 123.904 103.363 123.696C102.995 123.48 102.599 123.372 102.175 123.372C101.735 123.372 101.311 123.48 100.903 123.696C100.503 123.904 100.175 124.188 99.9192 124.548C99.6632 124.9 99.5352 125.292 99.5352 125.724H97.0392C97.0392 125.06 97.1752 124.436 97.4472 123.852C97.7272 123.26 98.1032 122.744 98.5752 122.304C99.0552 121.856 99.5992 121.508 100.207 121.26C100.823 121.004 101.467 120.876 102.139 120.876C103.019 120.876 103.835 121.096 104.587 121.536C105.347 121.968 105.955 122.552 106.411 123.288C106.875 124.016 107.107 124.828 107.107 125.724C107.107 126.436 106.931 127.112 106.579 127.752C106.235 128.384 105.755 128.832 105.139 129.096C105.675 129.288 106.123 129.592 106.483 130.008C106.851 130.416 107.127 130.888 107.311 131.424C107.495 131.952 107.587 132.5 107.587 133.068C107.587 134.028 107.343 134.908 106.855 135.708C106.367 136.5 105.715 137.132 104.899 137.604C104.091 138.076 103.207 138.312 102.247 138.312ZM114.364 138.312C113.348 138.312 112.436 138.076 111.628 137.604C110.828 137.132 110.196 136.5 109.732 135.708C109.268 134.916 109.036 134.036 109.036 133.068H111.532C111.532 133.572 111.652 134.032 111.892 134.448C112.132 134.864 112.464 135.196 112.888 135.444C113.312 135.692 113.804 135.816 114.364 135.816C114.868 135.816 115.336 135.692 115.768 135.444C116.2 135.196 116.548 134.864 116.812 134.448C117.076 134.032 117.208 133.572 117.208 133.068C117.208 132.428 117.04 131.892 116.704 131.46C116.368 131.028 115.9 130.708 115.3 130.5C114.708 130.284 114.024 130.176 113.248 130.176V128.208C114.304 128.208 115.148 128 115.78 127.584C116.412 127.168 116.728 126.548 116.728 125.724C116.728 125.292 116.612 124.9 116.38 124.548C116.156 124.188 115.856 123.904 115.48 123.696C115.112 123.48 114.716 123.372 114.292 123.372C113.852 123.372 113.428 123.48 113.02 123.696C112.62 123.904 112.292 124.188 112.036 124.548C111.78 124.9 111.652 125.292 111.652 125.724H109.156C109.156 125.06 109.292 124.436 109.564 123.852C109.844 123.26 110.22 122.744 110.692 122.304C111.172 121.856 111.716 121.508 112.324 121.26C112.94 121.004 113.584 120.876 114.256 120.876C115.136 120.876 115.952 121.096 116.704 121.536C117.464 121.968 118.072 122.552 118.528 123.288C118.992 124.016 119.224 124.828 119.224 125.724C119.224 126.436 119.048 127.112 118.696 127.752C118.352 128.384 117.872 128.832 117.256 129.096C117.792 129.288 118.24 129.592 118.6 130.008C118.968 130.416 119.244 130.888 119.428 131.424C119.612 131.952 119.704 132.5 119.704 133.068C119.704 134.028 119.46 134.908 118.972 135.708C118.484 136.5 117.832 137.132 117.016 137.604C116.208 138.076 115.324 138.312 114.364 138.312ZM127.502 121.2H130.418L136.526 138H133.886L132.722 134.808H125.198L124.046 138H121.394L127.502 121.2ZM126.122 132.312H131.798L128.954 124.512L126.122 132.312ZM145.54 138.312C144.404 138.312 143.336 138.088 142.336 137.64C141.336 137.184 140.456 136.56 139.696 135.768C138.944 134.968 138.352 134.04 137.92 132.984C137.496 131.928 137.284 130.8 137.284 129.6C137.284 128.4 137.496 127.272 137.92 126.216C138.352 125.16 138.944 124.236 139.696 123.444C140.456 122.644 141.336 122.02 142.336 121.572C143.336 121.116 144.404 120.888 145.54 120.888C146.9 120.888 148.152 121.204 149.296 121.836C150.44 122.468 151.388 123.308 152.14 124.356L149.92 125.544C149.4 124.888 148.756 124.364 147.988 123.972C147.22 123.58 146.404 123.384 145.54 123.384C144.74 123.384 143.992 123.548 143.296 123.876C142.6 124.204 141.988 124.652 141.46 125.22C140.932 125.788 140.52 126.448 140.224 127.2C139.928 127.952 139.78 128.752 139.78 129.6C139.78 130.456 139.928 131.26 140.224 132.012C140.52 132.756 140.932 133.416 141.46 133.992C141.996 134.56 142.612 135.008 143.308 135.336C144.004 135.656 144.748 135.816 145.54 135.816C146.42 135.816 147.24 135.62 148 135.228C148.768 134.828 149.408 134.3 149.92 133.644L152.14 134.856C151.388 135.904 150.44 136.744 149.296 137.376C148.152 138 146.9 138.312 145.54 138.312ZM159.798 121.2H162.714L168.822 138H166.182L165.018 134.808H157.494L156.342 138H153.69L159.798 121.2ZM158.418 132.312H164.094L161.25 124.512L158.418 132.312ZM176.309 138.312C175.245 138.312 174.281 138.056 173.417 137.544C172.561 137.024 171.881 136.336 171.377 135.48C170.881 134.616 170.633 133.672 170.633 132.648H173.129C173.129 133.232 173.273 133.764 173.561 134.244C173.849 134.724 174.233 135.108 174.713 135.396C175.193 135.676 175.725 135.816 176.309 135.816C176.885 135.816 177.413 135.676 177.893 135.396C178.373 135.108 178.757 134.724 179.045 134.244C179.333 133.764 179.477 133.232 179.477 132.648C179.477 132.064 179.345 131.532 179.081 131.052C178.817 130.564 178.421 130.176 177.893 129.888C177.365 129.592 176.693 129.444 175.877 129.444H171.641L173.345 121.2H181.469V123.696H175.373L174.713 126.948L176.165 126.972C177.309 126.996 178.313 127.26 179.177 127.764C180.049 128.26 180.733 128.932 181.229 129.78C181.725 130.62 181.973 131.576 181.973 132.648C181.973 133.424 181.825 134.156 181.529 134.844C181.233 135.524 180.825 136.124 180.305 136.644C179.793 137.164 179.193 137.572 178.505 137.868C177.825 138.164 177.093 138.312 176.309 138.312Z" fill="black"/>
</g>
<defs>
<clipPath id="clip0_49_189">
<rect width="200" height="200" fill="white" transform="translate(30 30)"/>
</clipPath>
</defs>
</svg>
