<svg width="260" height="260" viewBox="0 0 260 260" fill="none" xmlns="http://www.w3.org/2000/svg">
<rect width="260" height="260" rx="40" fill="#2C109F"/>
<g clip-path="url(#clip0_49_198)">
<mask id="mask0_49_198" style="mask-type:luminance" maskUnits="userSpaceOnUse" x="30" y="30" width="200" height="200">
<path d="M230 30H30V230H230V30Z" fill="white"/>
</mask>
<g mask="url(#mask0_49_198)">
<path fill-rule="evenodd" clip-rule="evenodd" d="M30 130L30 30H130H230V130C174.78 130 130.013 85.2417 130 30.0239C129.987 85.2417 85.2204 130 30 130ZM130 230C130 174.771 174.772 130 230 130V230H130ZM130 230C130 174.771 85.2285 130 30 130V230H130Z" fill="white" fill-opacity="0.89"/>
</g>
<path d="M99.2973 127.26H97.1373L95.8773 131.928H98.0373L97.4013 134.352H95.2413L94.2573 138H91.7613L92.7453 134.352H87.8973L86.9133 138H84.4173L85.4013 134.352H83.2413L83.8893 131.928H86.0373L87.2973 127.26H85.1373L85.7853 124.848H87.9333L88.9173 121.2H91.4133L90.4293 124.848H95.3013L96.2613 121.2H98.7573L97.7973 124.848H99.9333L99.2973 127.26ZM93.3813 131.928L94.6413 127.26H89.7933L88.5333 131.928H93.3813ZM101.851 138V135.78C102.419 135.308 103.071 134.76 103.807 134.136C104.543 133.504 105.291 132.836 106.051 132.132C106.811 131.42 107.511 130.712 108.151 130.008C108.791 129.296 109.307 128.624 109.699 127.992C110.099 127.352 110.299 126.796 110.299 126.324C110.299 125.788 110.167 125.3 109.903 124.86C109.647 124.412 109.299 124.056 108.859 123.792C108.419 123.52 107.931 123.384 107.395 123.384C106.859 123.384 106.367 123.52 105.919 123.792C105.479 124.056 105.123 124.412 104.851 124.86C104.587 125.3 104.455 125.788 104.455 126.324H101.959C101.959 125.308 102.207 124.392 102.703 123.576C103.207 122.752 103.867 122.1 104.683 121.62C105.507 121.132 106.411 120.888 107.395 120.888C108.387 120.888 109.291 121.132 110.107 121.62C110.923 122.108 111.575 122.764 112.063 123.588C112.551 124.404 112.795 125.316 112.795 126.324C112.795 126.884 112.679 127.46 112.447 128.052C112.215 128.644 111.891 129.248 111.475 129.864C111.067 130.48 110.591 131.104 110.047 131.736C109.503 132.368 108.919 133 108.295 133.632C107.671 134.264 107.035 134.888 106.387 135.504H112.939V138H101.851ZM123.583 138.312C122.447 138.312 121.379 138.088 120.379 137.64C119.379 137.184 118.499 136.56 117.739 135.768C116.987 134.968 116.395 134.04 115.963 132.984C115.539 131.928 115.327 130.8 115.327 129.6C115.327 128.4 115.539 127.272 115.963 126.216C116.395 125.16 116.987 124.236 117.739 123.444C118.499 122.644 119.379 122.02 120.379 121.572C121.379 121.116 122.447 120.888 123.583 120.888C124.943 120.888 126.195 121.204 127.339 121.836C128.483 122.468 129.431 123.308 130.183 124.356L127.963 125.544C127.443 124.888 126.799 124.364 126.031 123.972C125.263 123.58 124.447 123.384 123.583 123.384C122.783 123.384 122.035 123.548 121.339 123.876C120.643 124.204 120.031 124.652 119.503 125.22C118.975 125.788 118.563 126.448 118.267 127.2C117.971 127.952 117.823 128.752 117.823 129.6C117.823 130.456 117.971 131.26 118.267 132.012C118.563 132.756 118.975 133.416 119.503 133.992C120.039 134.56 120.655 135.008 121.351 135.336C122.047 135.656 122.791 135.816 123.583 135.816C124.463 135.816 125.283 135.62 126.043 135.228C126.811 134.828 127.451 134.3 127.963 133.644L130.183 134.856C129.431 135.904 128.483 136.744 127.339 137.376C126.195 138 124.943 138.312 123.583 138.312ZM134.347 138V123.696H132.343L133.027 121.2H136.843V138H134.347ZM146.002 138.312C145.01 138.312 144.114 138.088 143.314 137.64C142.522 137.184 141.838 136.556 141.262 135.756C140.686 134.956 140.246 134.032 139.942 132.984C139.638 131.928 139.486 130.8 139.486 129.6C139.486 128.4 139.638 127.272 139.942 126.216C140.246 125.16 140.686 124.236 141.262 123.444C141.838 122.644 142.522 122.02 143.314 121.572C144.114 121.116 145.01 120.888 146.002 120.888C146.978 120.888 147.866 121.116 148.666 121.572C149.466 122.02 150.146 122.644 150.706 123.444C151.274 124.236 151.71 125.16 152.014 126.216C152.318 127.272 152.47 128.4 152.47 129.6C152.47 130.8 152.318 131.928 152.014 132.984C151.71 134.032 151.274 134.956 150.706 135.756C150.146 136.556 149.466 137.184 148.666 137.64C147.866 138.088 146.978 138.312 146.002 138.312ZM146.002 135.816C146.922 135.816 147.686 135.528 148.294 134.952C148.91 134.368 149.37 133.604 149.674 132.66C149.978 131.716 150.13 130.696 150.13 129.6C150.13 128.448 149.97 127.404 149.65 126.468C149.338 125.524 148.874 124.776 148.258 124.224C147.65 123.664 146.898 123.384 146.002 123.384C145.29 123.384 144.67 123.552 144.142 123.888C143.622 124.224 143.19 124.684 142.846 125.268C142.51 125.852 142.254 126.516 142.078 127.26C141.91 128.004 141.826 128.784 141.826 129.6C141.826 130.696 141.982 131.716 142.294 132.66C142.606 133.604 143.07 134.368 143.686 134.952C144.31 135.528 145.082 135.816 146.002 135.816ZM156.912 138L160.308 132.12C159.5 132.272 158.712 132.24 157.944 132.024C157.184 131.8 156.5 131.436 155.892 130.932C155.284 130.42 154.8 129.8 154.44 129.072C154.08 128.344 153.9 127.544 153.9 126.672C153.9 125.88 154.048 125.136 154.344 124.44C154.648 123.736 155.064 123.12 155.592 122.592C156.12 122.056 156.732 121.64 157.428 121.344C158.132 121.04 158.884 120.888 159.684 120.888C160.732 120.888 161.692 121.148 162.564 121.668C163.436 122.188 164.132 122.888 164.652 123.768C165.172 124.64 165.432 125.608 165.432 126.672C165.432 127.224 165.364 127.728 165.228 128.184C165.1 128.64 164.896 129.12 164.616 129.624L159.804 138H156.912ZM159.66 129.948C160.3 129.948 160.868 129.796 161.364 129.492C161.86 129.18 162.248 128.776 162.528 128.28C162.816 127.776 162.96 127.236 162.96 126.66C162.96 126.036 162.808 125.476 162.504 124.98C162.2 124.484 161.796 124.092 161.292 123.804C160.796 123.516 160.26 123.372 159.684 123.372C159.044 123.372 158.476 123.528 157.98 123.84C157.484 124.152 157.092 124.56 156.804 125.064C156.516 125.56 156.372 126.092 156.372 126.66C156.372 127.26 156.516 127.812 156.804 128.316C157.1 128.812 157.496 129.208 157.992 129.504C158.488 129.8 159.044 129.948 159.66 129.948ZM167.581 138V121.2H177.481V123.696H170.077V127.752H176.329V130.248H170.077V138H167.581Z" fill="black"/>
</g>
<defs>
<clipPath id="clip0_49_198">
<rect width="200" height="200" fill="white" transform="translate(30 30)"/>
</clipPath>
</defs>
</svg>
