<svg width="313" height="313" viewBox="0 0 313 313" fill="none" xmlns="http://www.w3.org/2000/svg">
<rect y="58.75" width="260" height="260" rx="40" transform="rotate(-13.0594 0 58.75)" fill="#FCE8E8"/>
<g clip-path="url(#clip0_49_214)">
<mask id="mask0_49_214" style="mask-type:luminance" maskUnits="userSpaceOnUse" x="52" y="52" width="208" height="208">
<path d="M259.132 59.2323L59.2471 52.4597L52.4745 252.345L252.36 259.118L259.132 59.2323Z" fill="white"/>
</mask>
<g mask="url(#mask0_49_214)">
<path d="M156.94 57.6172C157.447 55.1712 160.974 55.2907 161.314 57.7655L165.067 85.0423C165.367 87.217 168.296 87.6889 169.261 85.718L181.367 60.997C182.466 58.754 185.851 59.7483 185.567 62.2303L182.432 89.5862C182.182 91.7673 184.901 92.9542 186.325 91.2855L204.187 70.357C205.807 68.4582 208.84 70.2649 207.948 72.598L198.122 98.3142C197.338 100.364 199.678 102.192 201.471 100.93L223.966 85.1093C226.007 83.6739 228.495 86.1794 227.052 88.2172L211.152 110.678C209.884 112.468 211.697 114.821 213.747 114.046L239.461 104.327C241.794 103.445 243.583 106.492 241.679 108.106L220.704 125.9C219.032 127.319 220.203 130.049 222.381 129.809L249.699 126.802C252.177 126.53 253.154 129.927 250.91 131.016L226.177 143.025C224.205 143.982 224.662 146.919 226.831 147.229L254.037 151.123C256.505 151.477 256.607 155.01 254.163 155.506L227.228 160.975C225.08 161.412 224.793 164.37 226.817 165.211L252.2 175.761C254.503 176.719 253.725 180.167 251.235 180.039L223.789 178.625C221.601 178.512 220.589 181.306 222.341 182.625L244.307 199.17C246.299 200.671 244.69 203.816 242.31 203.071L216.079 194.863C213.987 194.209 212.314 196.663 213.682 198.377L230.851 219.876C232.409 221.827 230.069 224.472 227.948 223.157L204.58 208.671C202.716 207.516 200.486 209.477 201.387 211.477L212.679 236.579C213.704 238.857 210.781 240.836 209.054 239.036L190.014 219.181C188.497 217.597 185.85 218.94 186.226 221.103L190.933 248.23C191.36 250.692 188.037 251.881 186.812 249.707L173.3 225.73C172.222 223.819 169.326 224.46 169.153 226.648L166.978 254.098C166.781 256.588 163.267 256.912 162.621 254.5L155.485 227.91C154.915 225.791 151.951 225.69 151.24 227.766L142.321 253.812C141.511 256.175 138.028 255.614 138 253.117L137.689 225.582C137.664 223.387 134.817 222.551 133.613 224.386L118.509 247.392C117.139 249.479 113.905 248.068 114.497 245.64L121.03 218.894C121.551 216.762 119.001 215.243 117.38 216.719L97.0407 235.24C95.1954 236.92 92.4131 234.747 93.5896 232.544L106.556 208.264C107.589 206.329 105.497 204.222 103.56 205.248L79.2635 218.12C77.0591 219.288 74.9037 216.49 76.5899 214.649L95.1747 194.362C96.6565 192.744 95.1528 190.183 93.0219 190.694L66.2947 197.107C63.8697 197.69 62.4767 194.443 64.5667 193.079L87.6025 178.06C89.4391 176.862 88.6187 174.006 86.4279 173.971L58.9492 173.524C56.4561 173.483 55.913 169.99 58.2755 169.191L84.3149 160.382C86.3909 159.68 86.3052 156.71 84.1921 156.129L57.6886 148.849C55.284 148.189 55.6249 144.67 58.1115 144.485L85.5183 142.441C87.7034 142.278 88.3577 139.379 86.4552 138.291L62.5921 124.635C60.4271 123.396 61.6305 120.073 64.085 120.513L91.1371 125.363C93.2939 125.749 94.6473 123.104 93.0748 121.576L73.3516 102.403C71.5622 100.664 73.5526 97.7447 75.8206 98.7824L100.818 110.22C102.811 111.132 104.779 108.907 103.635 107.035L89.2911 83.5495C87.9896 81.4187 90.642 79.0874 92.5811 80.6577L113.954 97.965C115.658 99.3449 118.115 97.6802 117.473 95.5816L109.409 69.2593C108.677 66.8711 111.825 65.2738 113.313 67.278L129.718 89.3675C131.026 91.1287 133.819 90.1286 133.718 87.9357L132.441 60.4303C132.325 57.9347 135.77 57.1719 136.714 59.484L147.12 84.9678C147.95 86.9996 150.904 86.7269 151.349 84.5775L156.94 57.6172Z" fill="#D93E2E"/>
</g>
<path d="M123.618 151.957L121.459 151.883L120.042 156.506L122.201 156.579L121.483 158.98L119.324 158.907L118.217 162.52L115.723 162.435L116.83 158.823L111.985 158.658L110.878 162.271L108.383 162.187L109.49 158.574L107.331 158.501L108.061 156.1L110.208 156.173L111.625 151.55L109.466 151.477L110.196 149.088L112.342 149.161L113.449 145.549L115.944 145.633L114.837 149.246L119.706 149.411L120.789 145.797L123.284 145.882L122.201 149.495L124.335 149.568L123.618 151.957ZM117.547 156.422L118.965 151.799L114.12 151.635L112.702 156.257L117.547 156.422ZM126.286 162.793L126.855 146.003L136.749 146.338L136.665 148.833L129.265 148.582L129.128 152.636L135.376 152.847L135.292 155.342L129.043 155.13L128.781 162.878L126.286 162.793ZM145.361 163.752C144.226 163.713 143.166 163.453 142.182 162.972C141.198 162.482 140.339 161.828 139.606 161.011C138.882 160.186 138.322 159.239 137.926 158.169C137.538 157.099 137.364 155.964 137.405 154.765C137.445 153.566 137.695 152.446 138.155 151.405C138.622 150.364 139.245 149.46 140.024 148.694C140.81 147.92 141.711 147.327 142.726 146.913C143.74 146.491 144.816 146.299 145.951 146.338C147.31 146.384 148.551 146.742 149.673 147.412C150.795 148.083 151.714 148.954 152.43 150.027L150.171 151.139C149.673 150.466 149.047 149.921 148.293 149.503C147.539 149.085 146.73 148.861 145.866 148.832C145.067 148.805 144.314 148.944 143.607 149.248C142.9 149.552 142.274 149.979 141.727 150.529C141.18 151.079 140.746 151.724 140.424 152.466C140.103 153.208 139.928 154.002 139.899 154.85C139.87 155.705 139.991 156.514 140.261 157.275C140.532 158.029 140.921 158.702 141.43 159.296C141.946 159.882 142.546 160.35 143.231 160.702C143.916 161.045 144.654 161.23 145.445 161.257C146.325 161.287 147.151 161.119 147.924 160.753C148.705 160.379 149.363 159.873 149.896 159.235L152.074 160.521C151.287 161.543 150.311 162.35 149.146 162.943C147.982 163.528 146.72 163.798 145.361 163.752ZM154.301 163.742L154.87 146.952L165.292 147.305L165.208 149.8L157.28 149.531L157.143 153.585L163.523 153.801L163.439 156.296L157.058 156.079L156.88 161.332L164.808 161.601L164.723 164.096L154.301 163.742ZM172.374 164.667C171.359 164.633 170.443 164.369 169.628 163.877C168.812 163.386 168.169 162.743 167.7 161.951C167.239 161.151 167.024 160.271 167.057 159.312C167.084 158.504 167.309 157.759 167.733 157.077C168.156 156.395 168.707 155.838 169.386 155.404C168.864 154.987 168.446 154.468 168.13 153.849C167.815 153.23 167.669 152.569 167.693 151.865C167.723 150.986 167.978 150.194 168.458 149.49C168.947 148.778 169.586 148.219 170.376 147.814C171.166 147.408 172.029 147.221 172.965 147.253C173.9 147.285 174.748 147.529 175.509 147.988C176.27 148.446 176.866 149.046 177.297 149.789C177.736 150.524 177.941 151.332 177.911 152.211C177.888 152.915 177.697 153.565 177.341 154.161C176.993 154.758 176.54 155.247 175.983 155.628C176.647 156.107 177.163 156.701 177.531 157.409C177.907 158.119 178.082 158.877 178.054 159.684C178.022 160.636 177.745 161.495 177.223 162.262C176.7 163.028 176.016 163.63 175.168 164.065C174.321 164.501 173.39 164.701 172.374 164.667ZM172.459 162.172C172.987 162.19 173.47 162.087 173.91 161.861C174.35 161.636 174.705 161.328 174.974 160.937C175.252 160.538 175.399 160.091 175.416 159.595C175.433 159.107 175.316 158.659 175.065 158.25C174.823 157.834 174.49 157.498 174.067 157.244C173.643 156.989 173.168 156.853 172.64 156.835C172.12 156.818 171.636 156.921 171.188 157.146C170.749 157.372 170.39 157.684 170.112 158.083C169.843 158.474 169.7 158.913 169.683 159.401C169.666 159.896 169.779 160.353 170.021 160.769C170.271 161.178 170.608 161.509 171.032 161.764C171.464 162.019 171.939 162.155 172.459 162.172ZM172.724 154.341C173.18 154.356 173.595 154.266 173.97 154.071C174.353 153.876 174.662 153.61 174.898 153.274C175.134 152.93 175.259 152.546 175.273 152.122C175.287 151.698 175.188 151.311 174.976 150.959C174.764 150.608 174.473 150.322 174.105 150.101C173.744 149.881 173.336 149.763 172.88 149.747C172.424 149.732 172.005 149.822 171.622 150.017C171.247 150.212 170.942 150.478 170.707 150.815C170.471 151.151 170.346 151.531 170.332 151.954C170.317 152.378 170.416 152.77 170.628 153.129C170.84 153.481 171.127 153.766 171.488 153.987C171.856 154.207 172.269 154.325 172.724 154.341ZM180.279 164.623L180.847 147.832L191.269 148.185L191.185 150.68L183.258 150.411L183.12 154.465L189.501 154.681L189.416 157.176L183.036 156.96L182.858 162.213L190.785 162.481L190.701 164.976L180.279 164.623ZM198.352 165.547C197.336 165.513 196.421 165.25 195.605 164.758C194.789 164.266 194.146 163.624 193.677 162.831C193.216 162.031 193.002 161.151 193.034 160.192C193.061 159.384 193.287 158.64 193.71 157.958C194.133 157.276 194.685 156.718 195.364 156.285C194.842 155.867 194.423 155.348 194.108 154.729C193.792 154.11 193.647 153.449 193.671 152.745C193.7 151.866 193.955 151.074 194.435 150.37C194.924 149.658 195.563 149.099 196.353 148.694C197.144 148.288 198.006 148.101 198.942 148.133C199.877 148.165 200.725 148.41 201.486 148.868C202.247 149.326 202.843 149.926 203.274 150.669C203.714 151.405 203.919 152.212 203.889 153.091C203.865 153.795 203.675 154.445 203.318 155.041C202.97 155.638 202.517 156.127 201.96 156.508C202.624 156.987 203.14 157.581 203.508 158.29C203.885 158.999 204.059 159.757 204.032 160.565C204 161.516 203.722 162.375 203.2 163.142C202.678 163.909 201.993 164.51 201.146 164.945C200.299 165.381 199.367 165.582 198.352 165.547ZM198.436 163.053C198.964 163.07 199.448 162.967 199.888 162.742C200.328 162.516 200.682 162.208 200.952 161.817C201.229 161.418 201.376 160.971 201.393 160.475C201.41 159.987 201.293 159.539 201.043 159.131C200.801 158.714 200.468 158.379 200.044 158.124C199.62 157.87 199.145 157.733 198.617 157.716C198.097 157.698 197.614 157.802 197.166 158.027C196.726 158.252 196.367 158.564 196.089 158.963C195.82 159.354 195.677 159.793 195.661 160.281C195.644 160.777 195.756 161.233 195.998 161.649C196.249 162.058 196.586 162.389 197.009 162.644C197.441 162.899 197.917 163.035 198.436 163.053ZM198.702 155.221C199.157 155.236 199.573 155.146 199.947 154.951C200.33 154.756 200.639 154.49 200.875 154.154C201.111 153.81 201.236 153.426 201.25 153.002C201.265 152.578 201.166 152.191 200.953 151.839C200.741 151.488 200.451 151.202 200.082 150.981C199.721 150.761 199.313 150.643 198.857 150.628C198.402 150.612 197.982 150.702 197.599 150.897C197.225 151.093 196.919 151.358 196.684 151.695C196.448 152.031 196.323 152.411 196.309 152.835C196.295 153.258 196.394 153.65 196.605 154.009C196.818 154.361 197.104 154.647 197.465 154.867C197.834 155.088 198.246 155.206 198.702 155.221Z" fill="black"/>
</g>
<defs>
<clipPath id="clip0_49_214">
<rect width="200" height="200" fill="white" transform="translate(59.2471 52.4597) rotate(1.94058)"/>
</clipPath>
</defs>
</svg>
