<svg width="260" height="260" viewBox="0 0 260 260" fill="none" xmlns="http://www.w3.org/2000/svg">
<rect width="260" height="260" rx="40" fill="white"/>
<g clip-path="url(#clip0_49_206)">
<mask id="mask0_49_206" style="mask-type:luminance" maskUnits="userSpaceOnUse" x="30" y="30" width="200" height="200">
<path d="M230 30H30V230H230V30Z" fill="white"/>
</mask>
<g mask="url(#mask0_49_206)">
<path d="M80.7139 30.5C106.164 30.5 127.13 49.7076 129.903 74.417L130.896 74.4238C133.986 50.0561 154.793 31.2139 180 31.2139H229.5V80.7139C229.5 106.164 210.293 127.13 185.583 129.903L185.576 130.896C209.943 133.986 228.786 154.793 228.786 180V229.5H179.286C153.836 229.5 132.87 210.293 130.097 185.583L129.104 185.576C126.014 209.944 105.207 228.786 80 228.786H30.5V179.286C30.5 153.836 49.7076 132.87 74.417 130.097L74.4238 129.104C50.0561 126.014 31.2139 105.207 31.2139 80V30.5H80.7139Z" stroke="#D93E2E"/>
</g>
<path d="M103.243 127.26H101.083L99.8226 131.928H101.983L101.347 134.352H99.1866L98.2026 138H95.7066L96.6906 134.352H91.8426L90.8586 138H88.3626L89.3466 134.352H87.1866L87.8346 131.928H89.9826L91.2426 127.26H89.0826L89.7306 124.848H91.8786L92.8626 121.2H95.3586L94.3746 124.848H99.2466L100.207 121.2H102.703L101.743 124.848H103.879L103.243 127.26ZM97.3266 131.928L98.5866 127.26H93.7386L92.4786 131.928H97.3266ZM106.276 138V121.2H116.176V123.696H108.772V127.752H115.024V130.248H108.772V138H106.276ZM117.948 138V121.2H127.848V123.696H120.444V127.752H126.696V130.248H120.444V138H117.948ZM129.62 138V121.2H139.52V123.696H132.116V127.752H138.368V130.248H132.116V138H129.62ZM141.292 138V121.2H151.192V123.696H143.788V127.752H150.04V130.248H143.788V138H141.292ZM152.963 138V121.2H162.863V123.696H155.459V127.752H161.711V130.248H155.459V138H152.963ZM164.635 138V121.2H174.535V123.696H167.131V127.752H173.383V130.248H167.131V138H164.635Z" fill="black"/>
</g>
<defs>
<clipPath id="clip0_49_206">
<rect width="200" height="200" fill="white" transform="translate(30 30)"/>
</clipPath>
</defs>
</svg>
