<svg width="32" height="32" viewBox="0 0 32 32" fill="none" xmlns="http://www.w3.org/2000/svg">
<path d="M0 5.81818C0 2.60489 2.60489 0 5.81818 0H26.1818C29.3951 0 32 2.60489 32 5.81818V26.1818C32 29.3951 29.3951 32 26.1818 32H5.81818C2.60489 32 0 29.3951 0 26.1818V5.81818Z" fill="white"/>
<path d="M26.1818 0C29.3951 0 32 2.60489 32 5.81818V26.1818C32 29.3951 29.3951 32 26.1818 32H5.81818C2.60489 32 0 29.3951 0 26.1818V5.81818C0 2.60489 2.60489 0 5.81818 0H26.1818ZM23.6364 4.78551C22.4208 4.78551 21.4354 5.77095 21.4354 6.98651V18.8274L21.4247 19.1754C21.3241 20.7905 20.5274 22.2731 19.2592 23.233L18.9801 23.4311C17.4503 24.4434 15.5026 24.5937 13.831 23.8416L13.6705 23.7663C11.7866 22.843 10.5646 20.8934 10.5646 18.7607V16.6101C10.5645 15.3947 9.57902 14.4092 8.36364 14.4091C7.14817 14.4091 6.16279 15.3947 6.16264 16.6101V18.7607C6.16264 22.5668 8.33499 26.0532 11.733 27.7188L12.0256 27.8565C15.0623 29.2226 18.6094 28.9542 21.4091 27.1016L21.6655 26.9261C24.1964 25.1338 25.7358 22.2447 25.8324 19.1385L25.8374 18.8274V6.98651L25.8345 6.87358C25.7757 5.71056 24.814 4.78561 23.6364 4.78551ZM8.20526 4.78054C6.59861 4.78054 5.29616 6.08298 5.29616 7.68963C5.29631 9.29616 6.5987 10.5987 8.20526 10.5987C9.81165 10.5985 11.1142 9.29604 11.1143 7.68963C11.1143 6.0831 9.81174 4.78073 8.20526 4.78054Z" fill="#33ACA5"/>
</svg>
