<svg width="231" height="121" viewBox="0 0 231 121" fill="none" xmlns="http://www.w3.org/2000/svg">
<rect x="18" y="116" width="50" height="5" fill="#C6F1FD"/>
<path d="M43.904 99.664C36.736 99.664 30.4213 97.9147 24.96 94.416C19.5413 90.9173 15.296 86.224 12.224 80.336C9.19467 74.4053 7.68 67.8347 7.68 60.624V8.39999H25.344V60.624C25.344 64.5067 26.0693 68.0693 27.52 71.312C28.9707 74.5547 31.0827 77.1573 33.856 79.12C36.6293 81.04 39.9787 82 43.904 82C47.872 82 51.2213 81.04 53.952 79.12C56.7253 77.2 58.816 74.6187 60.224 71.376C61.632 68.1333 62.336 64.5493 62.336 60.624V8.39999H80V60.624C80 66.0427 79.1253 71.12 77.376 75.856C75.6693 80.5493 73.216 84.688 70.016 88.272C66.816 91.856 62.9973 94.6507 58.56 96.656C54.1653 98.6613 49.28 99.664 43.904 99.664ZM93.555 98V1.99999H111.219V98H93.555ZM126.555 34H144.219V98H126.555V34ZM135.515 26.64C132.955 26.64 130.8 25.7867 129.051 24.08C127.302 22.3733 126.427 20.2613 126.427 17.744C126.427 15.2267 127.302 13.1147 129.051 11.408C130.8 9.70133 132.934 8.848 135.451 8.848C137.968 8.848 140.08 9.70133 141.787 11.408C143.536 13.1147 144.411 15.2267 144.411 17.744C144.411 20.2613 143.558 22.3733 141.851 24.08C140.187 25.7867 138.075 26.64 135.515 26.64ZM185.965 99.664C180.077 99.664 174.701 98.1493 169.837 95.12C165.016 92.0907 161.154 88.0373 158.253 82.96C155.394 77.84 153.965 72.1867 153.965 66C153.965 61.3067 154.797 56.9333 156.461 52.88C158.125 48.784 160.408 45.2 163.309 42.128C166.253 39.0133 169.666 36.5813 173.549 34.832C177.432 33.0827 181.57 32.208 185.965 32.208C191.853 32.208 197.208 33.7227 202.029 36.752C206.893 39.7813 210.754 43.856 213.613 48.976C216.514 54.096 217.965 59.7707 217.965 66C217.965 70.6507 217.133 75.0027 215.469 79.056C213.805 83.1093 211.501 86.6933 208.557 89.808C205.656 92.88 202.264 95.2907 198.381 97.04C194.541 98.7893 190.402 99.664 185.965 99.664ZM185.965 82C188.696 82 191.149 81.2747 193.325 79.824C195.501 78.3307 197.208 76.368 198.445 73.936C199.682 71.504 200.301 68.8587 200.301 66C200.301 63.056 199.64 60.368 198.317 57.936C197.037 55.4613 195.309 53.4987 193.133 52.048C190.957 50.5973 188.568 49.872 185.965 49.872C183.277 49.872 180.845 50.6187 178.669 52.112C176.493 53.6053 174.765 55.568 173.485 58C172.248 60.432 171.629 63.0987 171.629 66C171.629 69.0293 172.269 71.76 173.549 74.192C174.872 76.5813 176.621 78.48 178.797 79.888C180.973 81.296 183.362 82 185.965 82Z" fill="white"/>
</svg>
